<?xml version="1.0" encoding="UTF-8" standalone="no"?>
<!-- Created with Inkscape (http://www.inkscape.org/) -->

<svg
   width="554.07062"
   height="280.69931"
   viewBox="0 0 554.07062 280.69931"
   version="1.1"
   id="svg1"
   xml:space="preserve"
   xmlns="http://www.w3.org/2000/svg"
   xmlns:svg="http://www.w3.org/2000/svg"><defs
     id="defs1"><rect
       x="255.15788"
       y="474.94736"
       width="432"
       height="127.57895"
       id="rect2" /><rect
       x="255.15788"
       y="474.94736"
       width="331.20905"
       height="41.610203"
       id="rect3" /></defs><g
     id="layer1"
     style="display:inline;fill:#f8da42;fill-opacity:1"
     transform="matrix(1.274404,0,0,1.274404,-411.46452,-549.35264)"><text
       xml:space="preserve"
       transform="matrix(1.0030652,0,0,1.0030652,62.402038,1.6289026)"
       id="text1"
       style="font-size:96px;white-space:pre;shape-inside:url(#rect2);display:inline;fill:#000000;fill-opacity:1"><tspan
         x="255.1582"
         y="562.53098"
         id="tspan3"><tspan
           style="font-family:'Source Sans Pro';-inkscape-font-specification:'Source Sans Pro'"
           id="tspan2">Chapter</tspan></tspan></text><text
       xml:space="preserve"
       transform="matrix(1.0030652,0,0,1.0030652,100.76757,115.20352)"
       id="text3"
       style="font-size:21.9039px;white-space:pre;shape-inside:url(#rect3);display:inline;fill:#000000;fill-opacity:1"><tspan
         x="255.1582"
         y="494.93086"
         id="tspan5"><tspan
           style="font-family:'Source Sans Pro';-inkscape-font-specification:'Source Sans Pro'"
           id="tspan4">Xplore Ideas. Xceed Limits.</tspan></tspan></text><path
       style="fill:#000000;fill-opacity:1;stroke-width:0.784681"
       d="m 621.42962,576.33629 13.87401,0.0619 0.52565,36.26985 103.29534,-129.38715 18.51196,0.34918 -132.3203,167.58565 c 0,0 -3.01057,0.81414 -3.18579,-1.98933 -0.17522,-2.80347 -0.70087,-72.89015 -0.70087,-72.89015 z"
       id="path4" /><path
       style="fill:#000000;fill-opacity:1;stroke-width:0.784681"
       d="m 620.72875,506.05564 13.87401,-0.0619 0.52565,-36.26985 103.29534,129.38715 18.51196,-0.34918 -132.3203,-167.58565 c 0,0 -3.01057,-0.81414 -3.18579,1.98933 -0.17522,2.80347 -0.70087,72.89015 -0.70087,72.89015 z"
       id="path3" /></g></svg>
